{
	"asset":{
		"generator":"Khronos glTF Blender I/O v4.1.63",
		"version":"2.0"
	},
	"scene":0,
	"scenes":[
		{
			"name":"Scene",
			"nodes":[
				0
			]
		}
	],
	"nodes":[
		{
			"mesh":0,
			"name":"Cube"
		}
	],
	"materials":[
		{
			"doubleSided":true,
			"name":"ghost",
			"pbrMetallicRoughness":{
				"baseColorFactor":[
					0.800000011920929,
					0.800000011920929,
					0.800000011920929,
					1
				],
				"metallicFactor":0,
				"roughnessFactor":0.4000000059604645
			}
		},
		{
			"doubleSided":true,
			"name":"ghosteye",
			"pbrMetallicRoughness":{
				"baseColorFactor":[
					0.02924409881234169,
					0.02924409881234169,
					0.02924409881234169,
					1
				],
				"metallicFactor":0,
				"roughnessFactor":0.5
			}
		}
	],
	"meshes":[
		{
			"name":"Cube",
			"primitives":[
				{
					"attributes":{
						"POSITION":0,
						"NORMAL":1,
						"TEXCOORD_0":2
					},
					"indices":3,
					"material":0
				},
				{
					"attributes":{
						"POSITION":4,
						"NORMAL":5,
						"TEXCOORD_0":6
					},
					"indices":7,
					"material":1
				}
			]
		}
	],
	"accessors":[
		{
			"bufferView":0,
			"componentType":5126,
			"count":309,
			"max":[
				1.1532734632492065,
				3.580373764038086,
				1.3491694927215576
			],
			"min":[
				-1.1532734632492065,
				0.16159343719482422,
				-1.1532734632492065
			],
			"type":"VEC3"
		},
		{
			"bufferView":1,
			"componentType":5126,
			"count":309,
			"type":"VEC3"
		},
		{
			"bufferView":2,
			"componentType":5126,
			"count":309,
			"type":"VEC2"
		},
		{
			"bufferView":3,
			"componentType":5123,
			"count":624,
			"type":"SCALAR"
		},
		{
			"bufferView":4,
			"componentType":5126,
			"count":40,
			"max":[
				0.8711864948272705,
				2.8556602001190186,
				1.4077080488204956
			],
			"min":[
				-0.6534737348556519,
				2.3085877895355225,
				0.8994216322898865
			],
			"type":"VEC3"
		},
		{
			"bufferView":5,
			"componentType":5126,
			"count":40,
			"type":"VEC3"
		},
		{
			"bufferView":6,
			"componentType":5126,
			"count":40,
			"type":"VEC2"
		},
		{
			"bufferView":7,
			"componentType":5123,
			"count":60,
			"type":"SCALAR"
		}
	],
	"bufferViews":[
		{
			"buffer":0,
			"byteLength":3708,
			"byteOffset":0,
			"target":34962
		},
		{
			"buffer":0,
			"byteLength":3708,
			"byteOffset":3708,
			"target":34962
		},
		{
			"buffer":0,
			"byteLength":2472,
			"byteOffset":7416,
			"target":34962
		},
		{
			"buffer":0,
			"byteLength":1248,
			"byteOffset":9888,
			"target":34963
		},
		{
			"buffer":0,
			"byteLength":480,
			"byteOffset":11136,
			"target":34962
		},
		{
			"buffer":0,
			"byteLength":480,
			"byteOffset":11616,
			"target":34962
		},
		{
			"buffer":0,
			"byteLength":320,
			"byteOffset":12096,
			"target":34962
		},
		{
			"buffer":0,
			"byteLength":120,
			"byteOffset":12416,
			"target":34963
		}
	],
	"buffers":[
		{
			"byteLength":12536,
			"uri":"ghost.bin"
		}
	]
}
