{
	"asset":{
		"generator":"Khronos glTF Blender I/O v4.1.63",
		"version":"2.0"
	},
	"scene":0,
	"scenes":[
		{
			"name":"Scene",
			"nodes":[
				18
			]
		}
	],
	"nodes":[
		{
			"name":"head",
			"rotation":[
				-0.007478687446564436,
				0.010154256597161293,
				-0.00580695690587163,
				0.9999036192893982
			],
			"scale":[
				0.9999999403953552,
				1,
				1
			],
			"translation":[
				-6.274603947531432e-09,
				0.3138102889060974,
				-4.656612873077393e-10
			]
		},
		{
			"children":[
				0
			],
			"name":"neck",
			"rotation":[
				0.00010992716124746948,
				0.018594088032841682,
				0.00949141662567854,
				0.9997820854187012
			],
			"scale":[
				1,
				1,
				0.9999999403953552
			],
			"translation":[
				2.023798373329555e-08,
				0.6305456161499023,
				0
			]
		},
		{
			"name":"hand.R",
			"rotation":[
				7.568721691053604e-12,
				1.1920905507167845e-07,
				-1.1668011001830791e-10,
				1
			],
			"translation":[
				-2.0845618564635515e-08,
				0.9807574152946472,
				-4.132743924856186e-09
			]
		},
		{
			"children":[
				2
			],
			"name":"arm2.R",
			"rotation":[
				0.012623900547623634,
				0.00012705287372227758,
				0.0024039007257670164,
				0.9999174475669861
			],
			"scale":[
				0.9999998807907104,
				1,
				0.9999999403953552
			],
			"translation":[
				2.0099105313420296e-07,
				0.8957160115242004,
				-3.725290298461914e-09
			]
		},
		{
			"children":[
				3
			],
			"name":"arm1.R",
			"rotation":[
				0.0012723187683150172,
				-0.019389912486076355,
				0.7081112861633301,
				0.705833375453949
			],
			"scale":[
				0.9999998807907104,
				1,
				1
			],
			"translation":[
				-0.6655150651931763,
				0.6143887042999268,
				-0.0003773963253479451
			]
		},
		{
			"name":"hand.L",
			"rotation":[
				-3.167354399591371e-12,
				-1.2013798311727442e-07,
				1.9895199311788236e-13,
				1
			],
			"scale":[
				1,
				1.0000001192092896,
				1
			],
			"translation":[
				2.129127096850425e-08,
				0.9737625122070312,
				-9.89530235528946e-10
			]
		},
		{
			"children":[
				5
			],
			"name":"arm2.L",
			"rotation":[
				0.012355859391391277,
				-5.3082683734828606e-05,
				0.0034693307243287563,
				0.9999176263809204
			],
			"translation":[
				1.7724232748150826e-07,
				0.9027127027511597,
				9.313225746154785e-09
			]
		},
		{
			"children":[
				6
			],
			"name":"arm1.L",
			"rotation":[
				0.0015916426200419664,
				0.018818074837327003,
				-0.7063398957252502,
				0.7076209187507629
			],
			"scale":[
				0.9999999403953552,
				0.9999998807907104,
				1
			],
			"translation":[
				0.6550283432006836,
				0.6360389590263367,
				0.00037257399526424706
			]
		},
		{
			"children":[
				1,
				4,
				7
			],
			"name":"chest",
			"rotation":[
				5.5205237003974617e-05,
				0.0002846192510332912,
				-0.004193099681288004,
				0.9999911785125732
			],
			"scale":[
				1,
				0.9999999403953552,
				1
			],
			"translation":[
				0,
				1.179215431213379,
				0
			]
		},
		{
			"name":"foot.R",
			"rotation":[
				-0.5471508502960205,
				0.053712181746959686,
				-0.02164788544178009,
				0.835028350353241
			],
			"scale":[
				1.0000001192092896,
				1,
				1.0000001192092896
			],
			"translation":[
				6.315531209111214e-09,
				1.4562233686447144,
				3.346940502524376e-10
			]
		},
		{
			"children":[
				9
			],
			"name":"leg2.R",
			"rotation":[
				-0.0009049854124896228,
				6.0383040363376494e-06,
				0.0003905419143848121,
				0.9999995231628418
			],
			"scale":[
				1,
				1,
				0.9999999403953552
			],
			"translation":[
				-3.4924596548080444e-10,
				0.9025079011917114,
				5.820766091346741e-10
			]
		},
		{
			"children":[
				10
			],
			"name":"leg1.R",
			"rotation":[
				-0.013416020199656487,
				-0.001155366888269782,
				-0.9999085068702698,
				0.001299723400734365
			],
			"scale":[
				1,
				0.9999997019767761,
				0.9999999403953552
			],
			"translation":[
				-0.2575867772102356,
				-0.196671724319458,
				-0.01209438219666481
			]
		},
		{
			"name":"foot.L",
			"rotation":[
				-0.5471508502960205,
				-0.053712181746959686,
				0.021647891029715538,
				0.835028350353241
			],
			"translation":[
				-7.3661794885993e-08,
				1.4562233686447144,
				8.294591680169106e-10
			]
		},
		{
			"children":[
				12
			],
			"name":"leg2.L",
			"rotation":[
				-0.0009049855289049447,
				-6.037837920302991e-06,
				-0.0003905419143848121,
				0.9999995231628418
			],
			"scale":[
				1,
				0.9999999403953552,
				0.9999999403953552
			],
			"translation":[
				1.82189978659153e-08,
				0.9025077819824219,
				2.0954757928848267e-09
			]
		},
		{
			"children":[
				13
			],
			"name":"leg1.L",
			"rotation":[
				-0.013416020199656487,
				0.001155366888269782,
				0.9999085068702698,
				0.0012997235171496868
			],
			"scale":[
				1,
				0.9999997019767761,
				0.9999999403953552
			],
			"translation":[
				0.2575867474079132,
				-0.196671724319458,
				-0.01209438219666481
			]
		},
		{
			"children":[
				8,
				11,
				14
			],
			"name":"spine",
			"translation":[
				0,
				-0.1792154312133789,
				0
			]
		},
		{
			"name":"neutral_bone",
			"rotation":[
				-0.7071067690849304,
				0,
				0,
				0.7071067690849304
			]
		},
		{
			"mesh":0,
			"name":"skellingtonnopunch1",
			"skin":0
		},
		{
			"children":[
				17,
				15,
				16
			],
			"name":"Armature",
			"rotation":[
				-0.00013574761396739632,
				0,
				-1,
				0
			],
			"scale":[
				-0.9999999403953552,
				-1,
				-0.9999999403953552
			],
			"translation":[
				0.1849355697631836,
				2.3069283962249756,
				0
			]
		}
	],
	"materials":[
		{
			"doubleSided":true,
			"name":"Material.001",
			"pbrMetallicRoughness":{
				"metallicFactor":0,
				"roughnessFactor":0.5
			}
		}
	],
	"meshes":[
		{
			"name":"skellingtonnopunch1",
			"primitives":[
				{
					"attributes":{
						"POSITION":0,
						"NORMAL":1,
						"TEXCOORD_0":2,
						"COLOR_0":3,
						"JOINTS_0":4,
						"WEIGHTS_0":5
					},
					"indices":6,
					"material":0
				}
			]
		}
	],
	"skins":[
		{
			"inverseBindMatrices":7,
			"joints":[
				15,
				8,
				1,
				0,
				4,
				3,
				2,
				7,
				6,
				5,
				11,
				10,
				9,
				14,
				13,
				12,
				16
			],
			"name":"Armature"
		}
	],
	"accessors":[
		{
			"bufferView":0,
			"componentType":5126,
			"count":4030,
			"max":[
				3.1830263137817383,
				5.37992525100708,
				0.47144079208374023
			],
			"min":[
				-2.8170549869537354,
				-0.6200747489929199,
				-0.22883063554763794
			],
			"type":"VEC3"
		},
		{
			"bufferView":1,
			"componentType":5126,
			"count":4030,
			"type":"VEC3"
		},
		{
			"bufferView":2,
			"componentType":5126,
			"count":4030,
			"type":"VEC2"
		},
		{
			"bufferView":3,
			"componentType":5126,
			"count":4030,
			"type":"VEC3"
		},
		{
			"bufferView":4,
			"componentType":5121,
			"count":4030,
			"type":"VEC4"
		},
		{
			"bufferView":5,
			"componentType":5126,
			"count":4030,
			"type":"VEC4"
		},
		{
			"bufferView":6,
			"componentType":5123,
			"count":10920,
			"type":"SCALAR"
		},
		{
			"bufferView":7,
			"componentType":5126,
			"count":17,
			"type":"MAT4"
		}
	],
	"bufferViews":[
		{
			"buffer":0,
			"byteLength":48360,
			"byteOffset":0,
			"target":34962
		},
		{
			"buffer":0,
			"byteLength":48360,
			"byteOffset":48360,
			"target":34962
		},
		{
			"buffer":0,
			"byteLength":32240,
			"byteOffset":96720,
			"target":34962
		},
		{
			"buffer":0,
			"byteLength":48360,
			"byteOffset":128960,
			"target":34962
		},
		{
			"buffer":0,
			"byteLength":16120,
			"byteOffset":177320,
			"target":34962
		},
		{
			"buffer":0,
			"byteLength":64480,
			"byteOffset":193440,
			"target":34962
		},
		{
			"buffer":0,
			"byteLength":21840,
			"byteOffset":257920,
			"target":34963
		},
		{
			"buffer":0,
			"byteLength":1088,
			"byteOffset":279760
		}
	],
	"buffers":[
		{
			"byteLength":280848,
			"uri":"skeleton.bin"
		}
	]
}
