{
	"asset":{
		"generator":"Khronos glTF Blender I/O v4.1.63",
		"version":"2.0"
	},
	"scene":0,
	"scenes":[
		{
			"name":"Scene",
			"nodes":[
				0
			]
		}
	],
	"nodes":[
		{
			"mesh":0,
			"name":"castle-column"
		}
	],
	"materials":[
		{
			"doubleSided":true,
			"name":"wall-1",
			"pbrMetallicRoughness":{
				"baseColorTexture":{
					"index":0
				},
				"metallicFactor":0,
				"roughnessFactor":0.5
			}
		},
		{
			"doubleSided":true,
			"name":"concrete",
			"pbrMetallicRoughness":{
				"baseColorTexture":{
					"index":1
				},
				"metallicFactor":0,
				"roughnessFactor":0.5
			}
		}
	],
	"meshes":[
		{
			"name":"Cube.071",
			"primitives":[
				{
					"attributes":{
						"POSITION":0,
						"NORMAL":1,
						"TEXCOORD_0":2
					},
					"indices":3,
					"material":0
				},
				{
					"attributes":{
						"POSITION":4,
						"NORMAL":5,
						"TEXCOORD_0":6
					},
					"indices":7,
					"material":1
				}
			]
		}
	],
	"textures":[
		{
			"sampler":0,
			"source":0
		},
		{
			"sampler":0,
			"source":1
		}
	],
	"images":[
		{
			"mimeType":"image/jpeg",
			"name":"wall-tex-1",
			"uri":"wall-tex-1.jpg"
		},
		{
			"mimeType":"image/jpeg",
			"name":"concrete01_diff",
			"uri":"concrete01_diff.jpg"
		}
	],
	"accessors":[
		{
			"bufferView":0,
			"componentType":5126,
			"count":436,
			"max":[
				0.7592028379440308,
				4,
				0.759202778339386
			],
			"min":[
				-0.7592028379440308,
				0.0008303968352265656,
				-0.759202778339386
			],
			"type":"VEC3"
		},
		{
			"bufferView":1,
			"componentType":5126,
			"count":436,
			"type":"VEC3"
		},
		{
			"bufferView":2,
			"componentType":5126,
			"count":436,
			"type":"VEC2"
		},
		{
			"bufferView":3,
			"componentType":5123,
			"count":720,
			"type":"SCALAR"
		},
		{
			"bufferView":4,
			"componentType":5126,
			"count":76,
			"max":[
				0.213043674826622,
				4,
				0.21289968490600586
			],
			"min":[
				-0.212757408618927,
				3.9587795734405518,
				-0.21318936347961426
			],
			"type":"VEC3"
		},
		{
			"bufferView":5,
			"componentType":5126,
			"count":76,
			"type":"VEC3"
		},
		{
			"bufferView":6,
			"componentType":5126,
			"count":76,
			"type":"VEC2"
		},
		{
			"bufferView":7,
			"componentType":5123,
			"count":126,
			"type":"SCALAR"
		}
	],
	"bufferViews":[
		{
			"buffer":0,
			"byteLength":5232,
			"byteOffset":0,
			"target":34962
		},
		{
			"buffer":0,
			"byteLength":5232,
			"byteOffset":5232,
			"target":34962
		},
		{
			"buffer":0,
			"byteLength":3488,
			"byteOffset":10464,
			"target":34962
		},
		{
			"buffer":0,
			"byteLength":1440,
			"byteOffset":13952,
			"target":34963
		},
		{
			"buffer":0,
			"byteLength":912,
			"byteOffset":15392,
			"target":34962
		},
		{
			"buffer":0,
			"byteLength":912,
			"byteOffset":16304,
			"target":34962
		},
		{
			"buffer":0,
			"byteLength":608,
			"byteOffset":17216,
			"target":34962
		},
		{
			"buffer":0,
			"byteLength":252,
			"byteOffset":17824,
			"target":34963
		}
	],
	"samplers":[
		{
			"magFilter":9729,
			"minFilter":9987
		}
	],
	"buffers":[
		{
			"byteLength":18076,
			"uri":"pillar.bin"
		}
	]
}
