{
	"asset":{
		"generator":"Khronos glTF Blender I/O v4.1.63",
		"version":"2.0"
	},
	"scene":0,
	"scenes":[
		{
			"name":"Scene",
			"nodes":[
				0,
				1,
				2,
				3,
				4,
				5,
				6,
				7,
				8,
				9,
				10,
				11,
				12,
				13,
				14,
				15
			]
		}
	],
	"nodes":[
		{
			"mesh":0,
			"name":"rocks_8",
			"rotation":[
				-0.8318098783493042,
				0.2839643657207489,
				0.36330491304397583,
				0.30897581577301025
			],
			"scale":[
				0.35570311546325684,
				0.36743295192718506,
				0.34428706765174866
			],
			"translation":[
				-1.2832276821136475,
				-0.1864778846502304,
				-0.4892618656158447
			]
		},
		{
			"mesh":1,
			"name":"rocks_7",
			"rotation":[
				-0.8318098783493042,
				0.2839643657207489,
				0.36330491304397583,
				0.30897581577301025
			],
			"scale":[
				0.35570311546325684,
				0.36743295192718506,
				0.34428706765174866
			],
			"translation":[
				-1.2832276821136475,
				-0.1864778846502304,
				-0.4892618656158447
			]
		},
		{
			"mesh":2,
			"name":"rocks_6",
			"rotation":[
				-0.8318098783493042,
				0.2839643657207489,
				0.36330491304397583,
				0.30897581577301025
			],
			"scale":[
				0.35570311546325684,
				0.36743295192718506,
				0.34428706765174866
			],
			"translation":[
				-1.2832276821136475,
				-0.1864778846502304,
				-0.4892618656158447
			]
		},
		{
			"mesh":3,
			"name":"rocks_5",
			"rotation":[
				-0.6256856322288513,
				0.3816003203392029,
				0.6575832366943359,
				0.17459379136562347
			],
			"scale":[
				0.35570311546325684,
				0.36743295192718506,
				0.34428706765174866
			],
			"translation":[
				-1.101487398147583,
				-0.2281847447156906,
				0.11191356182098389
			]
		},
		{
			"mesh":4,
			"name":"rocks_4",
			"rotation":[
				-0.8318098783493042,
				0.2839643657207489,
				0.36330491304397583,
				0.30897581577301025
			],
			"scale":[
				0.35570311546325684,
				0.36743295192718506,
				0.34428706765174866
			],
			"translation":[
				-1.032781720161438,
				-0.4428868293762207,
				-0.4892618656158447
			]
		},
		{
			"mesh":5,
			"name":"rocks_3",
			"rotation":[
				-0.9076647758483887,
				0.1336919665336609,
				-0.006547358352690935,
				0.3977791666984558
			],
			"scale":[
				0.35570311546325684,
				0.36743295192718506,
				0.34428706765174866
			],
			"translation":[
				-0.5857597589492798,
				-0.4428867697715759,
				-0.7656465768814087
			]
		},
		{
			"mesh":6,
			"name":"rocks_2",
			"rotation":[
				-0.8318098783493042,
				0.2839643657207489,
				0.36330491304397583,
				0.30897581577301025
			],
			"scale":[
				0.35570311546325684,
				0.36743295192718506,
				0.34428706765174866
			],
			"translation":[
				-1.032781720161438,
				-0.4428868293762207,
				-0.4892618656158447
			]
		},
		{
			"mesh":7,
			"name":"rocks_1",
			"rotation":[
				-0.8318098783493042,
				0.2839643657207489,
				0.36330491304397583,
				0.30897581577301025
			],
			"scale":[
				0.35570311546325684,
				0.36743295192718506,
				0.34428706765174866
			],
			"translation":[
				-1.032781720161438,
				-0.4428868293762207,
				-0.4892618656158447
			]
		},
		{
			"mesh":8,
			"name":"crystal_8_bevel",
			"scale":[
				0.3976423740386963,
				0.3976423740386963,
				0.3976423740386963
			],
			"translation":[
				-0.4652051329612732,
				-0.13786903023719788,
				-0.19336532056331635
			]
		},
		{
			"mesh":9,
			"name":"crystal_7_bevel",
			"scale":[
				0.3976423740386963,
				0.3976423740386963,
				0.3976423740386963
			],
			"translation":[
				-0.4652051329612732,
				-0.13786903023719788,
				-0.19336532056331635
			]
		},
		{
			"mesh":10,
			"name":"crystal_6_bevel",
			"scale":[
				0.3976423740386963,
				0.3976423740386963,
				0.3976423740386963
			],
			"translation":[
				-0.4652051329612732,
				-0.13786903023719788,
				-0.19336532056331635
			]
		},
		{
			"mesh":11,
			"name":"crystal_5_bevel",
			"scale":[
				0.3976423740386963,
				0.3976423740386963,
				0.3976423740386963
			],
			"translation":[
				-0.4652051329612732,
				-0.13786903023719788,
				-0.19336532056331635
			]
		},
		{
			"mesh":12,
			"name":"crystal_4_bevel",
			"scale":[
				0.3976423740386963,
				0.3976423740386963,
				0.3976423740386963
			],
			"translation":[
				-0.4652051329612732,
				-0.13786903023719788,
				-0.19336532056331635
			]
		},
		{
			"mesh":13,
			"name":"crystal_3_bevel",
			"scale":[
				0.3976423740386963,
				0.3976423740386963,
				0.3976423740386963
			],
			"translation":[
				-0.4652051329612732,
				-0.13786903023719788,
				-0.19336532056331635
			]
		},
		{
			"mesh":14,
			"name":"crystal_2_bevel",
			"scale":[
				0.3976423740386963,
				0.3976423740386963,
				0.3976423740386963
			],
			"translation":[
				-0.4652051329612732,
				-0.13786903023719788,
				-0.19336532056331635
			]
		},
		{
			"mesh":15,
			"name":"crystal_1_bevel",
			"scale":[
				0.3976423740386963,
				0.3976423740386963,
				0.3976423740386963
			],
			"translation":[
				-0.4652051329612732,
				-0.13786903023719788,
				-0.19336532056331635
			]
		}
	],
	"materials":[
		{
			"doubleSided":true,
			"name":"rock",
			"pbrMetallicRoughness":{
				"baseColorTexture":{
					"index":0
				},
				"metallicFactor":0,
				"roughnessFactor":0.5
			}
		},
		{
			"doubleSided":true,
			"name":"crystal",
			"pbrMetallicRoughness":{
				"baseColorTexture":{
					"index":1
				},
				"metallicFactor":0,
				"roughnessFactor":0.5
			}
		}
	],
	"meshes":[
		{
			"name":"Cube.015",
			"primitives":[
				{
					"attributes":{
						"POSITION":0,
						"NORMAL":1,
						"TEXCOORD_0":2
					},
					"indices":3,
					"material":0
				}
			]
		},
		{
			"name":"Cube.014",
			"primitives":[
				{
					"attributes":{
						"POSITION":4,
						"NORMAL":5,
						"TEXCOORD_0":6
					},
					"indices":7,
					"material":0
				}
			]
		},
		{
			"name":"Cube.013",
			"primitives":[
				{
					"attributes":{
						"POSITION":8,
						"NORMAL":9,
						"TEXCOORD_0":10
					},
					"indices":11,
					"material":0
				}
			]
		},
		{
			"name":"Cube.012",
			"primitives":[
				{
					"attributes":{
						"POSITION":12,
						"NORMAL":13,
						"TEXCOORD_0":14
					},
					"indices":15,
					"material":0
				}
			]
		},
		{
			"name":"Cube.011",
			"primitives":[
				{
					"attributes":{
						"POSITION":16,
						"NORMAL":17,
						"TEXCOORD_0":18
					},
					"indices":11,
					"material":0
				}
			]
		},
		{
			"name":"Cube.010",
			"primitives":[
				{
					"attributes":{
						"POSITION":19,
						"NORMAL":20,
						"TEXCOORD_0":21
					},
					"indices":22,
					"material":0
				}
			]
		},
		{
			"name":"Cube.009",
			"primitives":[
				{
					"attributes":{
						"POSITION":23,
						"NORMAL":24,
						"TEXCOORD_0":25
					},
					"indices":26,
					"material":0
				}
			]
		},
		{
			"name":"Cube.008",
			"primitives":[
				{
					"attributes":{
						"POSITION":27,
						"NORMAL":28,
						"TEXCOORD_0":29
					},
					"indices":30,
					"material":0
				}
			]
		},
		{
			"name":"Cylinder.015",
			"primitives":[
				{
					"attributes":{
						"POSITION":31,
						"NORMAL":32,
						"TEXCOORD_0":33
					},
					"indices":34,
					"material":1
				}
			]
		},
		{
			"name":"Cylinder.014",
			"primitives":[
				{
					"attributes":{
						"POSITION":35,
						"NORMAL":36,
						"TEXCOORD_0":37
					},
					"indices":38,
					"material":1
				}
			]
		},
		{
			"name":"Cylinder.013",
			"primitives":[
				{
					"attributes":{
						"POSITION":39,
						"NORMAL":40,
						"TEXCOORD_0":41
					},
					"indices":42,
					"material":1
				}
			]
		},
		{
			"name":"Cylinder.012",
			"primitives":[
				{
					"attributes":{
						"POSITION":43,
						"NORMAL":44,
						"TEXCOORD_0":45
					},
					"indices":46,
					"material":1
				}
			]
		},
		{
			"name":"Cylinder.011",
			"primitives":[
				{
					"attributes":{
						"POSITION":47,
						"NORMAL":48,
						"TEXCOORD_0":49
					},
					"indices":50,
					"material":1
				}
			]
		},
		{
			"name":"Cylinder.008",
			"primitives":[
				{
					"attributes":{
						"POSITION":51,
						"NORMAL":52,
						"TEXCOORD_0":53
					},
					"indices":54,
					"material":1
				}
			]
		},
		{
			"name":"Cylinder.002",
			"primitives":[
				{
					"attributes":{
						"POSITION":55,
						"NORMAL":56,
						"TEXCOORD_0":57
					},
					"indices":58,
					"material":1
				}
			]
		},
		{
			"name":"Cylinder.001",
			"primitives":[
				{
					"attributes":{
						"POSITION":59,
						"NORMAL":60,
						"TEXCOORD_0":61
					},
					"indices":62,
					"material":1
				}
			]
		}
	],
	"textures":[
		{
			"sampler":0,
			"source":0
		},
		{
			"sampler":0,
			"source":1
		}
	],
	"images":[
		{
			"mimeType":"image/jpeg",
			"name":"174",
			"uri":"174.jpg"
		},
		{
			"mimeType":"image/jpeg",
			"name":"crystal",
			"uri":"crystal.jpg"
		}
	],
	"accessors":[
		{
			"bufferView":0,
			"componentType":5126,
			"count":948,
			"max":[
				1.8687145709991455,
				-0.8600403070449829,
				-0.39752161502838135
			],
			"min":[
				-0.3230348229408264,
				-2.8798258304595947,
				-2.453781843185425
			],
			"type":"VEC3"
		},
		{
			"bufferView":1,
			"componentType":5126,
			"count":948,
			"type":"VEC3"
		},
		{
			"bufferView":2,
			"componentType":5126,
			"count":948,
			"type":"VEC2"
		},
		{
			"bufferView":3,
			"componentType":5123,
			"count":5184,
			"type":"SCALAR"
		},
		{
			"bufferView":4,
			"componentType":5126,
			"count":711,
			"max":[
				1.8532546758651733,
				-1.0151314735412598,
				-0.5454775094985962
			],
			"min":[
				-0.40543147921562195,
				-2.7286133766174316,
				-2.3031160831451416
			],
			"type":"VEC3"
		},
		{
			"bufferView":5,
			"componentType":5126,
			"count":711,
			"type":"VEC3"
		},
		{
			"bufferView":6,
			"componentType":5126,
			"count":711,
			"type":"VEC2"
		},
		{
			"bufferView":7,
			"componentType":5123,
			"count":3888,
			"type":"SCALAR"
		},
		{
			"bufferView":8,
			"componentType":5126,
			"count":1185,
			"max":[
				2.6585099697113037,
				-0.2210894525051117,
				0.047309041023254395
			],
			"min":[
				-1.0539730787277222,
				-3.116136312484741,
				-2.7836272716522217
			],
			"type":"VEC3"
		},
		{
			"bufferView":9,
			"componentType":5126,
			"count":1185,
			"type":"VEC3"
		},
		{
			"bufferView":10,
			"componentType":5126,
			"count":1185,
			"type":"VEC2"
		},
		{
			"bufferView":11,
			"componentType":5123,
			"count":6480,
			"type":"SCALAR"
		},
		{
			"bufferView":12,
			"componentType":5126,
			"count":1422,
			"max":[
				3.0476601123809814,
				0.31055018305778503,
				0.6285295486450195
			],
			"min":[
				-1.7858670949935913,
				-3.3021039962768555,
				-2.879551887512207
			],
			"type":"VEC3"
		},
		{
			"bufferView":13,
			"componentType":5126,
			"count":1422,
			"type":"VEC3"
		},
		{
			"bufferView":14,
			"componentType":5126,
			"count":1422,
			"type":"VEC2"
		},
		{
			"bufferView":15,
			"componentType":5123,
			"count":7776,
			"type":"SCALAR"
		},
		{
			"bufferView":16,
			"componentType":5126,
			"count":1185,
			"max":[
				2.8568201065063477,
				0.2923823297023773,
				0.15881016850471497
			],
			"min":[
				-1.7858667373657227,
				-3.328991413116455,
				-2.8575453758239746
			],
			"type":"VEC3"
		},
		{
			"bufferView":17,
			"componentType":5126,
			"count":1185,
			"type":"VEC3"
		},
		{
			"bufferView":18,
			"componentType":5126,
			"count":1185,
			"type":"VEC2"
		},
		{
			"bufferView":19,
			"componentType":5126,
			"count":1422,
			"max":[
				2.767141819000244,
				0.5639548301696777,
				0.6493772268295288
			],
			"min":[
				-2.423619508743286,
				-3.6507725715637207,
				-3.2585887908935547
			],
			"type":"VEC3"
		},
		{
			"bufferView":20,
			"componentType":5126,
			"count":1422,
			"type":"VEC3"
		},
		{
			"bufferView":21,
			"componentType":5126,
			"count":1422,
			"type":"VEC2"
		},
		{
			"bufferView":22,
			"componentType":5123,
			"count":7776,
			"type":"SCALAR"
		},
		{
			"bufferView":23,
			"componentType":5126,
			"count":1422,
			"max":[
				2.767141819000244,
				0.7673537731170654,
				0.754033088684082
			],
			"min":[
				-2.5500941276550293,
				-3.690798044204712,
				-3.64034104347229
			],
			"type":"VEC3"
		},
		{
			"bufferView":24,
			"componentType":5126,
			"count":1422,
			"type":"VEC3"
		},
		{
			"bufferView":25,
			"componentType":5126,
			"count":1422,
			"type":"VEC2"
		},
		{
			"bufferView":26,
			"componentType":5123,
			"count":7776,
			"type":"SCALAR"
		},
		{
			"bufferView":27,
			"componentType":5126,
			"count":1185,
			"max":[
				2.8568201065063477,
				0.5767217874526978,
				0.6958945989608765
			],
			"min":[
				-1.7386490106582642,
				-3.328991413116455,
				-2.879551887512207
			],
			"type":"VEC3"
		},
		{
			"bufferView":28,
			"componentType":5126,
			"count":1185,
			"type":"VEC3"
		},
		{
			"bufferView":29,
			"componentType":5126,
			"count":1185,
			"type":"VEC2"
		},
		{
			"bufferView":30,
			"componentType":5123,
			"count":6480,
			"type":"SCALAR"
		},
		{
			"bufferView":31,
			"componentType":5126,
			"count":432,
			"max":[
				1.5680932998657227,
				2.238682746887207,
				1.197112798690796
			],
			"min":[
				-1.177381157875061,
				-0.27437394857406616,
				-1.0411356687545776
			],
			"type":"VEC3"
		},
		{
			"bufferView":32,
			"componentType":5126,
			"count":432,
			"type":"VEC3"
		},
		{
			"bufferView":33,
			"componentType":5126,
			"count":432,
			"type":"VEC2"
		},
		{
			"bufferView":34,
			"componentType":5123,
			"count":630,
			"type":"SCALAR"
		},
		{
			"bufferView":35,
			"componentType":5126,
			"count":432,
			"max":[
				1.180877685546875,
				2.977252244949341,
				1.2089353799819946
			],
			"min":[
				-0.981713593006134,
				-0.2883595824241638,
				-0.8874156475067139
			],
			"type":"VEC3"
		},
		{
			"bufferView":36,
			"componentType":5126,
			"count":432,
			"type":"VEC3"
		},
		{
			"bufferView":37,
			"componentType":5126,
			"count":432,
			"type":"VEC2"
		},
		{
			"bufferView":38,
			"componentType":5123,
			"count":630,
			"type":"SCALAR"
		},
		{
			"bufferView":39,
			"componentType":5126,
			"count":720,
			"max":[
				1.9651142358779907,
				5.5042619705200195,
				1.4869669675827026
			],
			"min":[
				-2.0083248615264893,
				-0.6961840391159058,
				-1.6308882236480713
			],
			"type":"VEC3"
		},
		{
			"bufferView":40,
			"componentType":5126,
			"count":720,
			"type":"VEC3"
		},
		{
			"bufferView":41,
			"componentType":5126,
			"count":720,
			"type":"VEC2"
		},
		{
			"bufferView":42,
			"componentType":5123,
			"count":1050,
			"type":"SCALAR"
		},
		{
			"bufferView":43,
			"componentType":5126,
			"count":576,
			"max":[
				1.8096064329147339,
				5.889622211456299,
				1.6063315868377686
			],
			"min":[
				-1.753587007522583,
				-1.0593147277832031,
				-2.78696870803833
			],
			"type":"VEC3"
		},
		{
			"bufferView":44,
			"componentType":5126,
			"count":576,
			"type":"VEC3"
		},
		{
			"bufferView":45,
			"componentType":5126,
			"count":576,
			"type":"VEC2"
		},
		{
			"bufferView":46,
			"componentType":5123,
			"count":840,
			"type":"SCALAR"
		},
		{
			"bufferView":47,
			"componentType":5126,
			"count":864,
			"max":[
				2.8475394248962402,
				5.233753204345703,
				2.965437889099121
			],
			"min":[
				-2.284458637237549,
				-1.1315302848815918,
				-2.133669376373291
			],
			"type":"VEC3"
		},
		{
			"bufferView":48,
			"componentType":5126,
			"count":864,
			"type":"VEC3"
		},
		{
			"bufferView":49,
			"componentType":5126,
			"count":864,
			"type":"VEC2"
		},
		{
			"bufferView":50,
			"componentType":5123,
			"count":1260,
			"type":"SCALAR"
		},
		{
			"bufferView":51,
			"componentType":5126,
			"count":576,
			"max":[
				2.0978150367736816,
				5.441705226898193,
				2.306255578994751
			],
			"min":[
				-2.209395408630371,
				-1.218473196029663,
				-2.3593239784240723
			],
			"type":"VEC3"
		},
		{
			"bufferView":52,
			"componentType":5126,
			"count":576,
			"type":"VEC3"
		},
		{
			"bufferView":53,
			"componentType":5126,
			"count":576,
			"type":"VEC2"
		},
		{
			"bufferView":54,
			"componentType":5123,
			"count":840,
			"type":"SCALAR"
		},
		{
			"bufferView":55,
			"componentType":5126,
			"count":720,
			"max":[
				3.5561294555664062,
				6.492635250091553,
				3.554729461669922
			],
			"min":[
				-2.4207708835601807,
				-1.6809605360031128,
				-3.8865506649017334
			],
			"type":"VEC3"
		},
		{
			"bufferView":56,
			"componentType":5126,
			"count":720,
			"type":"VEC3"
		},
		{
			"bufferView":57,
			"componentType":5126,
			"count":720,
			"type":"VEC2"
		},
		{
			"bufferView":58,
			"componentType":5123,
			"count":1050,
			"type":"SCALAR"
		},
		{
			"bufferView":59,
			"componentType":5126,
			"count":576,
			"max":[
				2.058368444442749,
				5.306532382965088,
				2.604853630065918
			],
			"min":[
				-2.6531999111175537,
				-1.0609204769134521,
				-1.7844798564910889
			],
			"type":"VEC3"
		},
		{
			"bufferView":60,
			"componentType":5126,
			"count":576,
			"type":"VEC3"
		},
		{
			"bufferView":61,
			"componentType":5126,
			"count":576,
			"type":"VEC2"
		},
		{
			"bufferView":62,
			"componentType":5123,
			"count":840,
			"type":"SCALAR"
		}
	],
	"bufferViews":[
		{
			"buffer":0,
			"byteLength":11376,
			"byteOffset":0,
			"target":34962
		},
		{
			"buffer":0,
			"byteLength":11376,
			"byteOffset":11376,
			"target":34962
		},
		{
			"buffer":0,
			"byteLength":7584,
			"byteOffset":22752,
			"target":34962
		},
		{
			"buffer":0,
			"byteLength":10368,
			"byteOffset":30336,
			"target":34963
		},
		{
			"buffer":0,
			"byteLength":8532,
			"byteOffset":40704,
			"target":34962
		},
		{
			"buffer":0,
			"byteLength":8532,
			"byteOffset":49236,
			"target":34962
		},
		{
			"buffer":0,
			"byteLength":5688,
			"byteOffset":57768,
			"target":34962
		},
		{
			"buffer":0,
			"byteLength":7776,
			"byteOffset":63456,
			"target":34963
		},
		{
			"buffer":0,
			"byteLength":14220,
			"byteOffset":71232,
			"target":34962
		},
		{
			"buffer":0,
			"byteLength":14220,
			"byteOffset":85452,
			"target":34962
		},
		{
			"buffer":0,
			"byteLength":9480,
			"byteOffset":99672,
			"target":34962
		},
		{
			"buffer":0,
			"byteLength":12960,
			"byteOffset":109152,
			"target":34963
		},
		{
			"buffer":0,
			"byteLength":17064,
			"byteOffset":122112,
			"target":34962
		},
		{
			"buffer":0,
			"byteLength":17064,
			"byteOffset":139176,
			"target":34962
		},
		{
			"buffer":0,
			"byteLength":11376,
			"byteOffset":156240,
			"target":34962
		},
		{
			"buffer":0,
			"byteLength":15552,
			"byteOffset":167616,
			"target":34963
		},
		{
			"buffer":0,
			"byteLength":14220,
			"byteOffset":183168,
			"target":34962
		},
		{
			"buffer":0,
			"byteLength":14220,
			"byteOffset":197388,
			"target":34962
		},
		{
			"buffer":0,
			"byteLength":9480,
			"byteOffset":211608,
			"target":34962
		},
		{
			"buffer":0,
			"byteLength":17064,
			"byteOffset":221088,
			"target":34962
		},
		{
			"buffer":0,
			"byteLength":17064,
			"byteOffset":238152,
			"target":34962
		},
		{
			"buffer":0,
			"byteLength":11376,
			"byteOffset":255216,
			"target":34962
		},
		{
			"buffer":0,
			"byteLength":15552,
			"byteOffset":266592,
			"target":34963
		},
		{
			"buffer":0,
			"byteLength":17064,
			"byteOffset":282144,
			"target":34962
		},
		{
			"buffer":0,
			"byteLength":17064,
			"byteOffset":299208,
			"target":34962
		},
		{
			"buffer":0,
			"byteLength":11376,
			"byteOffset":316272,
			"target":34962
		},
		{
			"buffer":0,
			"byteLength":15552,
			"byteOffset":327648,
			"target":34963
		},
		{
			"buffer":0,
			"byteLength":14220,
			"byteOffset":343200,
			"target":34962
		},
		{
			"buffer":0,
			"byteLength":14220,
			"byteOffset":357420,
			"target":34962
		},
		{
			"buffer":0,
			"byteLength":9480,
			"byteOffset":371640,
			"target":34962
		},
		{
			"buffer":0,
			"byteLength":12960,
			"byteOffset":381120,
			"target":34963
		},
		{
			"buffer":0,
			"byteLength":5184,
			"byteOffset":394080,
			"target":34962
		},
		{
			"buffer":0,
			"byteLength":5184,
			"byteOffset":399264,
			"target":34962
		},
		{
			"buffer":0,
			"byteLength":3456,
			"byteOffset":404448,
			"target":34962
		},
		{
			"buffer":0,
			"byteLength":1260,
			"byteOffset":407904,
			"target":34963
		},
		{
			"buffer":0,
			"byteLength":5184,
			"byteOffset":409164,
			"target":34962
		},
		{
			"buffer":0,
			"byteLength":5184,
			"byteOffset":414348,
			"target":34962
		},
		{
			"buffer":0,
			"byteLength":3456,
			"byteOffset":419532,
			"target":34962
		},
		{
			"buffer":0,
			"byteLength":1260,
			"byteOffset":422988,
			"target":34963
		},
		{
			"buffer":0,
			"byteLength":8640,
			"byteOffset":424248,
			"target":34962
		},
		{
			"buffer":0,
			"byteLength":8640,
			"byteOffset":432888,
			"target":34962
		},
		{
			"buffer":0,
			"byteLength":5760,
			"byteOffset":441528,
			"target":34962
		},
		{
			"buffer":0,
			"byteLength":2100,
			"byteOffset":447288,
			"target":34963
		},
		{
			"buffer":0,
			"byteLength":6912,
			"byteOffset":449388,
			"target":34962
		},
		{
			"buffer":0,
			"byteLength":6912,
			"byteOffset":456300,
			"target":34962
		},
		{
			"buffer":0,
			"byteLength":4608,
			"byteOffset":463212,
			"target":34962
		},
		{
			"buffer":0,
			"byteLength":1680,
			"byteOffset":467820,
			"target":34963
		},
		{
			"buffer":0,
			"byteLength":10368,
			"byteOffset":469500,
			"target":34962
		},
		{
			"buffer":0,
			"byteLength":10368,
			"byteOffset":479868,
			"target":34962
		},
		{
			"buffer":0,
			"byteLength":6912,
			"byteOffset":490236,
			"target":34962
		},
		{
			"buffer":0,
			"byteLength":2520,
			"byteOffset":497148,
			"target":34963
		},
		{
			"buffer":0,
			"byteLength":6912,
			"byteOffset":499668,
			"target":34962
		},
		{
			"buffer":0,
			"byteLength":6912,
			"byteOffset":506580,
			"target":34962
		},
		{
			"buffer":0,
			"byteLength":4608,
			"byteOffset":513492,
			"target":34962
		},
		{
			"buffer":0,
			"byteLength":1680,
			"byteOffset":518100,
			"target":34963
		},
		{
			"buffer":0,
			"byteLength":8640,
			"byteOffset":519780,
			"target":34962
		},
		{
			"buffer":0,
			"byteLength":8640,
			"byteOffset":528420,
			"target":34962
		},
		{
			"buffer":0,
			"byteLength":5760,
			"byteOffset":537060,
			"target":34962
		},
		{
			"buffer":0,
			"byteLength":2100,
			"byteOffset":542820,
			"target":34963
		},
		{
			"buffer":0,
			"byteLength":6912,
			"byteOffset":544920,
			"target":34962
		},
		{
			"buffer":0,
			"byteLength":6912,
			"byteOffset":551832,
			"target":34962
		},
		{
			"buffer":0,
			"byteLength":4608,
			"byteOffset":558744,
			"target":34962
		},
		{
			"buffer":0,
			"byteLength":1680,
			"byteOffset":563352,
			"target":34963
		}
	],
	"samplers":[
		{
			"magFilter":9729,
			"minFilter":9987
		}
	],
	"buffers":[
		{
			"byteLength":565032,
			"uri":"Crystal.bin"
		}
	]
}
