{
	"asset":{
		"generator":"Khronos glTF Blender I/O v4.1.63",
		"version":"2.0"
	},
	"scene":0,
	"scenes":[
		{
			"name":"Scene",
			"nodes":[
				0,
				1,
				2,
				3,
				4,
				5,
				6,
				7,
				8,
				9,
				10,
				11
			]
		}
	],
	"nodes":[
		{
			"mesh":0,
			"name":"Crystal_Model_01"
		},
		{
			"mesh":1,
			"name":"Crystal_Model_02"
		},
		{
			"mesh":2,
			"name":"Crystal_Model_03"
		},
		{
			"mesh":3,
			"name":"Crystal_Model_04"
		},
		{
			"mesh":4,
			"name":"Crystal_Model_05"
		},
		{
			"mesh":5,
			"name":"Crystal_Model_06"
		},
		{
			"mesh":6,
			"name":"Crystal_Model_07"
		},
		{
			"mesh":7,
			"name":"Crystal_Model_08"
		},
		{
			"mesh":8,
			"name":"Crystal_Model_09"
		},
		{
			"mesh":9,
			"name":"Crystal_Model_10"
		},
		{
			"mesh":10,
			"name":"Crystal_Model_11"
		},
		{
			"mesh":11,
			"name":"Crystal_Model_12"
		}
	],
	"materials":[
		{
			"doubleSided":true,
			"name":"Material",
			"pbrMetallicRoughness":{
				"baseColorTexture":{
					"index":0
				},
				"metallicFactor":0.20000000298023224,
				"roughnessFactor":0.20000001788139343
			}
		}
	],
	"meshes":[
		{
			"name":"Cube.044",
			"primitives":[
				{
					"attributes":{
						"POSITION":0,
						"NORMAL":1,
						"TEXCOORD_0":2
					},
					"indices":3,
					"material":0
				}
			]
		},
		{
			"name":"Cube.048",
			"primitives":[
				{
					"attributes":{
						"POSITION":4,
						"NORMAL":5,
						"TEXCOORD_0":6
					},
					"indices":7,
					"material":0
				}
			]
		},
		{
			"name":"Cube.050",
			"primitives":[
				{
					"attributes":{
						"POSITION":8,
						"NORMAL":9,
						"TEXCOORD_0":10
					},
					"indices":11,
					"material":0
				}
			]
		},
		{
			"name":"Cube.071",
			"primitives":[
				{
					"attributes":{
						"POSITION":12,
						"NORMAL":13,
						"TEXCOORD_0":14
					},
					"indices":15,
					"material":0
				}
			]
		},
		{
			"name":"Cube.072",
			"primitives":[
				{
					"attributes":{
						"POSITION":16,
						"NORMAL":17,
						"TEXCOORD_0":18
					},
					"indices":19,
					"material":0
				}
			]
		},
		{
			"name":"Cube.073",
			"primitives":[
				{
					"attributes":{
						"POSITION":20,
						"NORMAL":21,
						"TEXCOORD_0":22
					},
					"indices":19,
					"material":0
				}
			]
		},
		{
			"name":"Cube.075",
			"primitives":[
				{
					"attributes":{
						"POSITION":23,
						"NORMAL":24,
						"TEXCOORD_0":25
					},
					"indices":26,
					"material":0
				}
			]
		},
		{
			"name":"Cube.076",
			"primitives":[
				{
					"attributes":{
						"POSITION":27,
						"NORMAL":28,
						"TEXCOORD_0":29
					},
					"indices":30,
					"material":0
				}
			]
		},
		{
			"name":"Cube.078",
			"primitives":[
				{
					"attributes":{
						"POSITION":31,
						"NORMAL":32,
						"TEXCOORD_0":33
					},
					"indices":34,
					"material":0
				}
			]
		},
		{
			"name":"Cube.079",
			"primitives":[
				{
					"attributes":{
						"POSITION":35,
						"NORMAL":36,
						"TEXCOORD_0":37
					},
					"indices":38,
					"material":0
				}
			]
		},
		{
			"name":"Cube.087",
			"primitives":[
				{
					"attributes":{
						"POSITION":39,
						"NORMAL":40,
						"TEXCOORD_0":41
					},
					"indices":42,
					"material":0
				}
			]
		},
		{
			"name":"Cube.088",
			"primitives":[
				{
					"attributes":{
						"POSITION":43,
						"NORMAL":44,
						"TEXCOORD_0":45
					},
					"indices":46,
					"material":0
				}
			]
		}
	],
	"textures":[
		{
			"sampler":0,
			"source":0
		}
	],
	"images":[
		{
			"mimeType":"image/png",
			"name":"Crystal_Basecolor_01",
			"uri":"Crystal_Basecolor_01.png"
		}
	],
	"accessors":[
		{
			"bufferView":0,
			"componentType":5126,
			"count":156,
			"max":[
				0.13494093716144562,
				0.29817694425582886,
				0.06282196193933487
			],
			"min":[
				-0.04442279413342476,
				-5.968595839789259e-09,
				-0.06514789909124374
			],
			"type":"VEC3"
		},
		{
			"bufferView":1,
			"componentType":5126,
			"count":156,
			"type":"VEC3"
		},
		{
			"bufferView":2,
			"componentType":5126,
			"count":156,
			"type":"VEC2"
		},
		{
			"bufferView":3,
			"componentType":5123,
			"count":168,
			"type":"SCALAR"
		},
		{
			"bufferView":4,
			"componentType":5126,
			"count":150,
			"max":[
				0.03250335529446602,
				0.318247526884079,
				0.04442282021045685
			],
			"min":[
				-0.06428384780883789,
				-1.814216554762993e-09,
				-0.04457223787903786
			],
			"type":"VEC3"
		},
		{
			"bufferView":5,
			"componentType":5126,
			"count":150,
			"type":"VEC3"
		},
		{
			"bufferView":6,
			"componentType":5126,
			"count":150,
			"type":"VEC2"
		},
		{
			"bufferView":7,
			"componentType":5123,
			"count":156,
			"type":"SCALAR"
		},
		{
			"bufferView":8,
			"componentType":5126,
			"count":120,
			"max":[
				0.04810860753059387,
				0.15433023869991302,
				0.059040095657110214
			],
			"min":[
				-0.05983872711658478,
				-7.932560386336718e-09,
				-0.08750753849744797
			],
			"type":"VEC3"
		},
		{
			"bufferView":9,
			"componentType":5126,
			"count":120,
			"type":"VEC3"
		},
		{
			"bufferView":10,
			"componentType":5126,
			"count":120,
			"type":"VEC2"
		},
		{
			"bufferView":11,
			"componentType":5123,
			"count":132,
			"type":"SCALAR"
		},
		{
			"bufferView":12,
			"componentType":5126,
			"count":68,
			"max":[
				0.022832846269011497,
				0.07441416382789612,
				0.0493432991206646
			],
			"min":[
				-0.036737699061632156,
				4.632491254596971e-05,
				-0.035013165324926376
			],
			"type":"VEC3"
		},
		{
			"bufferView":13,
			"componentType":5126,
			"count":68,
			"type":"VEC3"
		},
		{
			"bufferView":14,
			"componentType":5126,
			"count":68,
			"type":"VEC2"
		},
		{
			"bufferView":15,
			"componentType":5123,
			"count":72,
			"type":"SCALAR"
		},
		{
			"bufferView":16,
			"componentType":5126,
			"count":90,
			"max":[
				-0.007812771946191788,
				0.21237047016620636,
				-0.02450939454138279
			],
			"min":[
				-0.04546569660305977,
				0.03028698079288006,
				-0.07984995096921921
			],
			"type":"VEC3"
		},
		{
			"bufferView":17,
			"componentType":5126,
			"count":90,
			"type":"VEC3"
		},
		{
			"bufferView":18,
			"componentType":5126,
			"count":90,
			"type":"VEC2"
		},
		{
			"bufferView":19,
			"componentType":5123,
			"count":96,
			"type":"SCALAR"
		},
		{
			"bufferView":20,
			"componentType":5126,
			"count":90,
			"max":[
				-0.007812771946191788,
				0.21237047016620636,
				-0.02450939454138279
			],
			"min":[
				-0.04546569660305977,
				0.03028698079288006,
				-0.07984995096921921
			],
			"type":"VEC3"
		},
		{
			"bufferView":21,
			"componentType":5126,
			"count":90,
			"type":"VEC3"
		},
		{
			"bufferView":22,
			"componentType":5126,
			"count":90,
			"type":"VEC2"
		},
		{
			"bufferView":23,
			"componentType":5126,
			"count":90,
			"max":[
				0.00982880499213934,
				0.26343441009521484,
				-0.027385255321860313
			],
			"min":[
				-0.02813979983329773,
				0.05549824237823486,
				-0.06513060629367828
			],
			"type":"VEC3"
		},
		{
			"bufferView":24,
			"componentType":5126,
			"count":90,
			"type":"VEC3"
		},
		{
			"bufferView":25,
			"componentType":5126,
			"count":90,
			"type":"VEC2"
		},
		{
			"bufferView":26,
			"componentType":5123,
			"count":96,
			"type":"SCALAR"
		},
		{
			"bufferView":27,
			"componentType":5126,
			"count":82,
			"max":[
				0.035251129418611526,
				0.044979728758335114,
				0.036861393600702286
			],
			"min":[
				-0.03996926546096802,
				-4.95265517486132e-09,
				-0.03582789748907089
			],
			"type":"VEC3"
		},
		{
			"bufferView":28,
			"componentType":5126,
			"count":82,
			"type":"VEC3"
		},
		{
			"bufferView":29,
			"componentType":5126,
			"count":82,
			"type":"VEC2"
		},
		{
			"bufferView":30,
			"componentType":5123,
			"count":84,
			"type":"SCALAR"
		},
		{
			"bufferView":31,
			"componentType":5126,
			"count":121,
			"max":[
				0.03820621222257614,
				0.085717111825943,
				0.06202571839094162
			],
			"min":[
				-0.03341958299279213,
				0.0004183882556390017,
				-0.02269587479531765
			],
			"type":"VEC3"
		},
		{
			"bufferView":32,
			"componentType":5126,
			"count":121,
			"type":"VEC3"
		},
		{
			"bufferView":33,
			"componentType":5126,
			"count":121,
			"type":"VEC2"
		},
		{
			"bufferView":34,
			"componentType":5123,
			"count":132,
			"type":"SCALAR"
		},
		{
			"bufferView":35,
			"componentType":5126,
			"count":96,
			"max":[
				0.006906615570187569,
				0.1014019101858139,
				0.06397613883018494
			],
			"min":[
				-0.021808702498674393,
				-0.0007071821019053459,
				0.009330878965556622
			],
			"type":"VEC3"
		},
		{
			"bufferView":36,
			"componentType":5126,
			"count":96,
			"type":"VEC3"
		},
		{
			"bufferView":37,
			"componentType":5126,
			"count":96,
			"type":"VEC2"
		},
		{
			"bufferView":38,
			"componentType":5123,
			"count":96,
			"type":"SCALAR"
		},
		{
			"bufferView":39,
			"componentType":5126,
			"count":94,
			"max":[
				2.551823854446411e-06,
				0.12718072533607483,
				0.013464376330375671
			],
			"min":[
				-0.020323246717453003,
				-0.0005994813982397318,
				-0.01102675125002861
			],
			"type":"VEC3"
		},
		{
			"bufferView":40,
			"componentType":5126,
			"count":94,
			"type":"VEC3"
		},
		{
			"bufferView":41,
			"componentType":5126,
			"count":94,
			"type":"VEC2"
		},
		{
			"bufferView":42,
			"componentType":5123,
			"count":96,
			"type":"SCALAR"
		},
		{
			"bufferView":43,
			"componentType":5126,
			"count":94,
			"max":[
				0.020821748301386833,
				0.1791379451751709,
				0.02064451389014721
			],
			"min":[
				-0.0040328167378902435,
				-0.00014834137982688844,
				-0.017740434035658836
			],
			"type":"VEC3"
		},
		{
			"bufferView":44,
			"componentType":5126,
			"count":94,
			"type":"VEC3"
		},
		{
			"bufferView":45,
			"componentType":5126,
			"count":94,
			"type":"VEC2"
		},
		{
			"bufferView":46,
			"componentType":5123,
			"count":96,
			"type":"SCALAR"
		}
	],
	"bufferViews":[
		{
			"buffer":0,
			"byteLength":1872,
			"byteOffset":0,
			"target":34962
		},
		{
			"buffer":0,
			"byteLength":1872,
			"byteOffset":1872,
			"target":34962
		},
		{
			"buffer":0,
			"byteLength":1248,
			"byteOffset":3744,
			"target":34962
		},
		{
			"buffer":0,
			"byteLength":336,
			"byteOffset":4992,
			"target":34963
		},
		{
			"buffer":0,
			"byteLength":1800,
			"byteOffset":5328,
			"target":34962
		},
		{
			"buffer":0,
			"byteLength":1800,
			"byteOffset":7128,
			"target":34962
		},
		{
			"buffer":0,
			"byteLength":1200,
			"byteOffset":8928,
			"target":34962
		},
		{
			"buffer":0,
			"byteLength":312,
			"byteOffset":10128,
			"target":34963
		},
		{
			"buffer":0,
			"byteLength":1440,
			"byteOffset":10440,
			"target":34962
		},
		{
			"buffer":0,
			"byteLength":1440,
			"byteOffset":11880,
			"target":34962
		},
		{
			"buffer":0,
			"byteLength":960,
			"byteOffset":13320,
			"target":34962
		},
		{
			"buffer":0,
			"byteLength":264,
			"byteOffset":14280,
			"target":34963
		},
		{
			"buffer":0,
			"byteLength":816,
			"byteOffset":14544,
			"target":34962
		},
		{
			"buffer":0,
			"byteLength":816,
			"byteOffset":15360,
			"target":34962
		},
		{
			"buffer":0,
			"byteLength":544,
			"byteOffset":16176,
			"target":34962
		},
		{
			"buffer":0,
			"byteLength":144,
			"byteOffset":16720,
			"target":34963
		},
		{
			"buffer":0,
			"byteLength":1080,
			"byteOffset":16864,
			"target":34962
		},
		{
			"buffer":0,
			"byteLength":1080,
			"byteOffset":17944,
			"target":34962
		},
		{
			"buffer":0,
			"byteLength":720,
			"byteOffset":19024,
			"target":34962
		},
		{
			"buffer":0,
			"byteLength":192,
			"byteOffset":19744,
			"target":34963
		},
		{
			"buffer":0,
			"byteLength":1080,
			"byteOffset":19936,
			"target":34962
		},
		{
			"buffer":0,
			"byteLength":1080,
			"byteOffset":21016,
			"target":34962
		},
		{
			"buffer":0,
			"byteLength":720,
			"byteOffset":22096,
			"target":34962
		},
		{
			"buffer":0,
			"byteLength":1080,
			"byteOffset":22816,
			"target":34962
		},
		{
			"buffer":0,
			"byteLength":1080,
			"byteOffset":23896,
			"target":34962
		},
		{
			"buffer":0,
			"byteLength":720,
			"byteOffset":24976,
			"target":34962
		},
		{
			"buffer":0,
			"byteLength":192,
			"byteOffset":25696,
			"target":34963
		},
		{
			"buffer":0,
			"byteLength":984,
			"byteOffset":25888,
			"target":34962
		},
		{
			"buffer":0,
			"byteLength":984,
			"byteOffset":26872,
			"target":34962
		},
		{
			"buffer":0,
			"byteLength":656,
			"byteOffset":27856,
			"target":34962
		},
		{
			"buffer":0,
			"byteLength":168,
			"byteOffset":28512,
			"target":34963
		},
		{
			"buffer":0,
			"byteLength":1452,
			"byteOffset":28680,
			"target":34962
		},
		{
			"buffer":0,
			"byteLength":1452,
			"byteOffset":30132,
			"target":34962
		},
		{
			"buffer":0,
			"byteLength":968,
			"byteOffset":31584,
			"target":34962
		},
		{
			"buffer":0,
			"byteLength":264,
			"byteOffset":32552,
			"target":34963
		},
		{
			"buffer":0,
			"byteLength":1152,
			"byteOffset":32816,
			"target":34962
		},
		{
			"buffer":0,
			"byteLength":1152,
			"byteOffset":33968,
			"target":34962
		},
		{
			"buffer":0,
			"byteLength":768,
			"byteOffset":35120,
			"target":34962
		},
		{
			"buffer":0,
			"byteLength":192,
			"byteOffset":35888,
			"target":34963
		},
		{
			"buffer":0,
			"byteLength":1128,
			"byteOffset":36080,
			"target":34962
		},
		{
			"buffer":0,
			"byteLength":1128,
			"byteOffset":37208,
			"target":34962
		},
		{
			"buffer":0,
			"byteLength":752,
			"byteOffset":38336,
			"target":34962
		},
		{
			"buffer":0,
			"byteLength":192,
			"byteOffset":39088,
			"target":34963
		},
		{
			"buffer":0,
			"byteLength":1128,
			"byteOffset":39280,
			"target":34962
		},
		{
			"buffer":0,
			"byteLength":1128,
			"byteOffset":40408,
			"target":34962
		},
		{
			"buffer":0,
			"byteLength":752,
			"byteOffset":41536,
			"target":34962
		},
		{
			"buffer":0,
			"byteLength":192,
			"byteOffset":42288,
			"target":34963
		}
	],
	"samplers":[
		{
			"magFilter":9729,
			"minFilter":9987
		}
	],
	"buffers":[
		{
			"byteLength":42480,
			"uri":"Beacon.bin"
		}
	]
}
